<svg width="148" height="107" viewBox="0 0 148 107" fill="none" xmlns="http://www.w3.org/2000/svg">
<g clip-path="url(#clip0_3_3503)">
<path d="M0.846755 99.1412C0.669209 98.6682 0.528084 98.186 0.423377 97.6948C0.318671 97.2081 0.236727 96.6577 0.177545 96.0527C0.118364 95.4478 0.0728391 94.7337 0.0455245 93.9195C0.0136573 93.1053 0 92.1182 0 90.9629C0 89.8075 0.0136573 88.825 0.0455245 88.0063C0.0728391 87.1921 0.118364 86.4825 0.177545 85.873C0.236727 85.268 0.318671 84.7267 0.423377 84.2491C0.528084 83.7761 0.669209 83.2848 0.846755 82.7845C1.64799 80.2964 2.97275 78.436 4.82559 77.2079C6.67844 75.9798 8.941 75.3657 11.6087 75.3657C14.2765 75.3657 16.3751 75.9525 18.1688 77.1215C19.9625 78.2905 21.2872 79.9416 22.1476 82.0749C22.2979 82.3433 22.2205 82.5207 21.9246 82.6071L17.0762 84.7859C16.8076 84.936 16.6028 84.8586 16.4525 84.563C16.0383 83.585 15.451 82.7708 14.6953 82.1204C13.9396 81.4699 12.9244 81.1424 11.6497 81.1424C10.4615 81.1424 9.49185 81.4381 8.73614 82.0294C7.98044 82.6207 7.4387 83.4349 7.11092 84.472C7.01987 84.7404 6.94703 85.0269 6.88785 85.3362C6.82867 85.6456 6.77859 86.0413 6.73307 86.5143C6.68754 86.9874 6.66023 87.5787 6.64202 88.2928C6.62836 89.0024 6.61926 89.8939 6.61926 90.9583C6.61926 92.0227 6.62836 92.9142 6.64202 93.6238C6.65567 94.3334 6.68754 94.9292 6.73307 95.4023C6.77859 95.8754 6.82867 96.2665 6.88785 96.5804C6.94703 96.8897 7.01987 97.1808 7.11092 97.4446C7.4387 98.4817 7.97588 99.2959 8.73614 99.8872C9.49185 100.479 10.4615 100.774 11.6497 100.774C12.9244 100.774 13.9396 100.447 14.6953 99.7962C15.451 99.1458 16.0383 98.3316 16.4525 97.3536C16.6028 97.058 16.8076 96.9852 17.0762 97.1308L21.9246 99.3095C22.2205 99.4005 22.2933 99.5779 22.1476 99.8417C21.2872 101.975 19.9625 103.626 18.1688 104.795C16.3751 105.964 14.19 106.551 11.6087 106.551C9.0275 106.551 6.67844 105.937 4.82559 104.709C2.97275 103.481 1.64799 101.62 0.846755 99.1321V99.1412Z" fill="white"/>
<path d="M34.6442 106.56C32.3588 106.56 30.3876 106.041 28.7305 105.004C27.0689 103.967 25.9308 102.471 25.3071 100.515C25.0704 99.7462 24.8928 98.9548 24.7745 98.136C24.6561 97.3218 24.5969 96.3803 24.5969 95.3159C24.5969 94.2515 24.6561 93.31 24.7745 92.4958C24.8928 91.6816 25.0704 90.8901 25.3071 90.1168C25.9308 88.1609 27.0689 86.6644 28.7305 85.6274C30.3922 84.5903 32.3634 84.0717 34.6442 84.0717C36.9249 84.0717 38.8962 84.5903 40.5578 85.6274C42.2194 86.6644 43.3576 88.1609 43.9812 90.1168C44.218 90.8855 44.3955 91.6816 44.5139 92.4958C44.6322 93.31 44.6914 94.2515 44.6914 95.3159C44.6914 96.3803 44.6322 97.3218 44.5139 98.136C44.3955 98.9502 44.218 99.7417 43.9812 100.515C43.3576 102.471 42.2149 103.967 40.5578 105.004C38.8962 106.041 36.9249 106.56 34.6442 106.56ZM34.6442 101.315C36.365 101.315 37.4758 100.547 37.9811 99.0048C38.1313 98.4999 38.2315 97.9905 38.2907 97.4719C38.3499 96.9534 38.3817 96.2347 38.3817 95.3159C38.3817 94.3971 38.3499 93.6784 38.2907 93.1598C38.2315 92.6413 38.1268 92.1319 37.9811 91.627C37.4758 90.085 36.365 89.3163 34.6442 89.3163C32.9233 89.3163 31.8125 90.085 31.3072 91.627C31.157 92.1319 31.0568 92.6413 30.9977 93.1598C30.9385 93.6784 30.9066 94.3971 30.9066 95.3159C30.9066 96.2347 30.9339 96.9534 30.9977 97.4719C31.0568 97.9905 31.1615 98.4999 31.3072 99.0048C31.8125 100.547 32.9233 101.315 34.6442 101.315Z" fill="white"/>
<path d="M49.0526 106.073C48.7567 106.073 48.6064 105.923 48.6064 105.628V85.0088C48.6064 84.7131 48.7567 84.563 49.0526 84.563H54.3881C54.684 84.563 54.8342 84.7131 54.8342 85.0088V86.8282H54.8797C55.385 85.9685 56.1089 85.2953 57.0603 84.8086C58.0072 84.3219 59.1499 84.0763 60.4838 84.0763C61.194 84.0763 61.8859 84.1855 62.5506 84.4083C63.2198 84.6312 63.7889 84.9496 64.2623 85.3635C64.4672 85.5409 64.5127 85.7502 64.3943 85.9867L61.9041 90.5171C61.7539 90.6945 61.549 90.7263 61.2805 90.6081C60.2152 89.9258 59.1772 89.6028 58.1666 89.6301C57.0103 89.6893 56.1635 90.1168 55.6309 90.9174C55.0982 91.7179 54.8296 92.8414 54.8296 94.2924V105.623C54.8296 105.919 54.6794 106.069 54.3835 106.069H49.048L49.0526 106.073Z" fill="white"/>
<path d="M74.2686 106.342C71.7648 106.342 69.9893 105.764 68.9423 104.609C67.8952 103.453 67.3762 101.648 67.3762 99.1867V89.4118C67.3762 89.2344 67.2852 89.1434 67.1076 89.1434H65.7738C65.4779 89.1434 65.3276 88.9979 65.3276 88.6977V85.0088C65.3276 84.7131 65.4779 84.563 65.7738 84.563H67.1076C67.2852 84.563 67.3762 84.472 67.3762 84.2946V78.5179C67.3762 78.2222 67.5265 78.0721 67.8224 78.0721H73.1533C73.4538 78.0721 73.5994 78.2222 73.5994 78.5179V84.2946C73.5994 84.472 73.6905 84.563 73.868 84.563H76.6268C76.9227 84.563 77.0729 84.7131 77.0729 85.0088V88.6977C77.0729 88.9933 76.9227 89.1434 76.6268 89.1434H73.868C73.6905 89.1434 73.5994 89.2344 73.5994 89.4118V98.9548C73.5994 99.7553 73.7497 100.315 74.0456 100.629C74.3415 100.942 74.8468 101.097 75.557 101.097H76.6223C76.9182 101.097 77.0684 101.243 77.0684 101.538V105.9C77.0684 106.196 76.9182 106.342 76.6223 106.342H74.2641H74.2686Z" fill="white"/>
<path d="M93.6574 106.073C93.3614 106.073 93.2112 105.923 93.2112 105.628V104.204H93.1657C92.6012 104.913 91.8455 105.487 90.8986 105.914C89.9471 106.342 88.7362 106.56 87.2521 106.56C86.3006 106.56 85.3901 106.433 84.516 106.182C83.642 105.932 82.8772 105.537 82.2262 105.004C81.5752 104.472 81.0562 103.79 80.6692 102.962C80.2823 102.134 80.0911 101.143 80.0911 99.9873C80.0911 97.6175 80.9151 95.8708 82.5585 94.7428C84.2019 93.6192 86.3598 93.0552 89.0275 93.0552H92.8516C93.0291 93.0552 93.1202 92.9643 93.1202 92.7869V91.9863C93.1202 90.9811 92.8152 90.2396 92.2097 89.7666C91.5997 89.2935 90.4388 89.057 88.718 89.057C87.6208 89.057 86.6739 89.1889 85.8727 89.4573C85.0714 89.7257 84.4204 90.0486 83.9151 90.4352C83.6784 90.6126 83.4872 90.5853 83.337 90.3443L81.3339 86.8327C81.1837 86.5644 81.2292 86.3597 81.4659 86.2096C82.3855 85.5591 83.5054 85.0406 84.8256 84.654C86.1458 84.2673 87.6936 84.0763 89.4737 84.0763C91.2537 84.0763 92.7059 84.2309 93.9214 84.5448C95.1369 84.8541 96.1248 85.3317 96.8805 85.9685C97.6362 86.6053 98.1825 87.4104 98.5239 88.3884C98.8654 89.3663 99.0338 90.5217 99.0338 91.8544V105.628C99.0338 105.923 98.8836 106.073 98.5877 106.073H93.6528H93.6574ZM89.1231 101.898C91.7909 101.898 93.1247 100.906 93.1247 98.9229V97.4583C93.1247 97.2809 93.0337 97.1899 92.8561 97.1899H89.8333C87.2839 97.1899 86.0092 98.0041 86.0092 99.6325C86.0092 101.143 87.0472 101.898 89.1231 101.898Z" fill="white"/>
<path d="M121.983 76.3027C122.074 76.0071 122.265 75.857 122.561 75.857H128.165C128.461 75.857 128.652 76.0071 128.743 76.3027L138.973 105.628C139.064 105.923 138.959 106.073 138.663 106.073H132.881C132.586 106.073 132.394 105.923 132.303 105.628L130.569 100.338H119.984L118.295 105.628C118.204 105.923 118.013 106.073 117.717 106.073H111.89C111.594 106.073 111.489 105.923 111.581 105.628L121.987 76.3027H121.983ZM128.789 94.7882L125.365 84.2128H125.233L121.81 94.7882H128.793H128.789Z" fill="white"/>
<path d="M142.218 81.147C141.923 81.147 141.772 81.0014 141.772 80.7058V76.3437C141.772 76.048 141.923 75.9025 142.218 75.9025H147.554C147.85 75.9025 148 76.048 148 76.3437V80.7058C148 81.0014 147.85 81.147 147.554 81.147H142.218ZM142.218 106.073C141.923 106.073 141.772 105.923 141.772 105.628V85.0088C141.772 84.7131 141.923 84.563 142.218 84.563H147.554C147.85 84.563 148 84.7131 148 85.0088V105.628C148 105.923 147.85 106.073 147.554 106.073H142.218Z" fill="white"/>
<path d="M74.1138 53.9373C73.2398 55.0972 72.4203 56.2525 71.5326 57.3533C68.0272 61.6926 63.4611 64.1807 57.9754 65.0358C51.8296 65.9956 46.1436 64.8175 41.0722 61.1786C37.0114 58.263 34.3619 54.3739 33.6699 49.3386C33.5106 48.1696 33.6471 46.9506 33.7655 45.768C33.7974 45.4587 34.2208 45.0357 34.5394 44.9583C34.767 44.9038 35.2132 45.2813 35.3862 45.5724C36.5471 47.4965 38.063 49.0339 40.1753 50.121C40.1753 48.1605 40.1753 46.3002 40.1753 44.4398C40.1708 34.8923 40.1617 25.3402 40.1617 15.7927C40.1617 10.7574 42.9296 6.9639 47.5184 5.79491C48.5336 5.53564 49.6126 5.5129 50.6687 5.44467C51.4745 5.39008 52.2849 5.43557 53.209 5.43557C53.209 4.61227 53.1999 3.81172 53.209 3.01572C53.2318 1.32819 54.4746 0.0636768 56.1544 0.00454502C58.0482 -0.0636839 59.455 1.03253 59.6006 2.77464C59.6689 3.60703 59.6143 4.44852 59.6143 5.36734H88.4313C88.4313 4.60318 88.4222 3.80262 88.4313 3.00207C88.4495 1.30999 89.7515 0.027288 91.4769 0.00454502C93.3616 -0.0227466 94.741 1.15989 94.8092 2.88836C94.8411 3.69346 94.8138 4.50311 94.8138 5.43557C95.697 5.43557 96.5483 5.43557 97.3996 5.43557C99.2661 5.42647 101.069 5.74033 102.708 6.67279C106.026 8.56046 107.706 11.4488 107.715 15.2469C107.743 26.5001 107.729 37.7534 107.729 49.002C107.729 49.3523 107.729 49.7071 107.729 50.1665C109.687 49.2795 111.08 47.9286 112.218 46.282C112.409 46.0091 112.527 45.6679 112.755 45.445C112.987 45.2176 113.329 44.9492 113.611 44.9583C113.838 44.9674 114.216 45.3586 114.235 45.5997C114.321 46.896 114.517 48.2333 114.307 49.4978C113.146 56.4936 108.986 61.2469 102.521 63.7168C94.4678 66.7916 86.7514 65.8364 79.7816 60.5418C77.7467 58.9953 76.1579 56.9939 74.7375 54.8743C74.5372 54.5741 74.3323 54.2739 74.1138 53.9464V53.9373ZM102.084 24.1712H45.9478V50.9397C46.1755 50.9124 46.3712 50.9079 46.5533 50.8715C49.517 50.2438 52.0208 48.7564 54.3016 46.8005C56.0315 45.3131 57.725 43.7393 59.6279 42.5021C62.801 40.4461 66.2927 39.7365 69.9893 41.042C71.6919 41.6424 73.0121 42.7705 74.0501 44.2397C76.6086 40.851 80.0092 39.9321 83.9608 40.6508C87.2613 41.2512 89.9108 43.0707 92.2872 45.3313C94.2129 47.1644 96.1795 48.9475 98.6788 49.9663C99.7578 50.4076 100.9 50.6896 102.084 51.0671V24.1712ZM94.9231 11.185C94.4724 13.7231 93.5983 14.792 91.7864 14.7238C91.0262 14.6965 90.1931 14.4281 89.5512 14.0233C88.5587 13.3956 88.3857 12.2676 88.3994 11.1259H59.7691C59.373 13.5776 58.4398 14.742 56.6916 14.7284C55.9268 14.7238 55.0846 14.4873 54.4291 14.1006C53.3592 13.4684 53.1498 12.2994 53.1635 11.1122C52.0709 11.1122 51.0648 11.0531 50.0678 11.1259C48.0693 11.2669 46.3485 12.6678 46.0753 14.5737C45.8841 15.9019 46.0389 17.2801 46.0389 18.6311H102.12C102.12 17.4757 102.18 16.3613 102.107 15.256C101.961 13.1091 100.468 11.4716 98.3328 11.2077C97.2357 11.0713 96.1067 11.185 94.9276 11.185H94.9231Z" fill="white"/>
</g>
<defs>
<clipPath id="clip0_3_3503">
<rect width="148" height="106.65" fill="white"/>
</clipPath>
</defs>
</svg>
